# xmcd CD database file
#
# Track frame offsets:
#	150
#	26323
#	51363
#	70622
#	92981
#	110670
#	134080
#	156566
#	182278
#	209904
#	231401
#	257317
#
# Disc length: 3801 seconds
#
# Revision: 3
# Processed by: cddbd v1.5.1PL2 Copyright (c) Steve Scherf et al.
# Submitted via: CDex 1.51
#
DISCID=af0ed70c
DTITLE=萩原直樹 - LIGHTS
DYEAR=2006
DGENRE=New Age
TTITLE0=美雨
TTITLE1=Achive Movement
TTITLE2=Mute
TTITLE3=Radical Table
TTITLE4=Open the Heaven
TTITLE5=Sofia
TTITLE6=Living with Joy
TTITLE7=Innocence
TTITLE8=Star People
TTITLE9=Lonesomeness
TTITLE10=Penguin Cafe
TTITLE11=天晴
EXTD=YEAR: 2006
EXTT0=
EXTT1=
EXTT2=
EXTT3=
EXTT4=
EXTT5=
EXTT6=
EXTT7=
EXTT8=
EXTT9=
EXTT10=
EXTT11=
PLAYORDER=
